<svg width="64" height="64" viewBox="0 0 64 64" fill="none" xmlns="http://www.w3.org/2000/svg">
<path d="M32.0026 5.33334C17.2693 5.33334 5.33595 17.2667 5.33595 32C5.33112 37.5981 7.08996 43.0555 10.3628 47.5973C13.6355 52.1391 18.256 55.5345 23.5679 57.3013C24.9013 57.5333 25.4026 56.7333 25.4026 56.032C25.4026 55.4 25.3679 53.3013 25.3679 51.0667C18.6693 52.3013 16.9359 49.4347 16.4026 47.9333C16.1013 47.1653 14.8026 44.8 13.6693 44.1653C12.7359 43.6667 11.4026 42.432 13.6346 42.4C15.7359 42.3653 17.2346 44.3333 17.7359 45.1333C20.1359 49.1653 23.9679 48.032 25.5013 47.3333C25.7359 45.6 26.4346 44.4347 27.2026 43.768C21.2693 43.1013 15.0693 40.8 15.0693 30.6C15.0693 27.6987 16.1013 25.3013 17.8026 23.4347C17.5359 22.768 16.6026 20.0347 18.0693 16.368C18.0693 16.368 20.3013 15.6667 25.4026 19.0987C27.5737 18.4977 29.8166 18.1954 32.0693 18.2C34.3359 18.2 36.6026 18.4987 38.7359 19.0987C43.8373 15.632 46.0693 16.368 46.0693 16.368C47.5359 20.0347 46.6026 22.768 46.3359 23.4347C48.0346 25.3013 49.0693 27.6667 49.0693 30.6C49.0693 40.8347 42.8373 43.1013 36.9039 43.768C37.8693 44.6 38.7039 46.2 38.7039 48.7013C38.7039 52.2667 38.6693 55.1333 38.6693 56.0347C38.6693 56.7333 39.1706 57.5653 40.5039 57.2987C45.796 55.5096 50.3942 52.1069 53.6521 47.569C56.91 43.0311 58.6637 37.5863 58.6666 32C58.6666 17.2667 46.7333 5.33334 31.9999 5.33334" fill="black"/>
</svg>
