<svg width="64" height="64" viewBox="0 0 64 64" fill="none" xmlns="http://www.w3.org/2000/svg">
<mask id="mask0_28_309" style="mask-type:luminance" maskUnits="userSpaceOnUse" x="0" y="0" width="64" height="64">
<path d="M0 0H64V64H0V0Z" fill="white"/>
</mask>
<g mask="url(#mask0_28_309)">
<path d="M29.904 0.0163333C29.7653 0.0296667 29.328 0.075 28.9333 0.104333C19.8453 0.925667 11.3333 5.82967 5.936 13.3683C2.95732 17.5073 1.01996 22.3031 0.288 27.3497C0.032 29.1097 0 29.627 0 32.011C0 34.395 0.032 34.915 0.288 36.6723C2.02667 48.691 10.5813 58.787 22.1787 62.5283C24.256 63.1977 26.4453 63.6537 28.9333 63.931C29.904 64.0377 34.096 64.0377 35.0667 63.931C39.3627 63.4537 43.0053 62.3897 46.5947 60.5577C47.1467 60.2777 47.2533 60.2003 47.1787 60.139C45.423 57.8235 43.6851 55.4946 41.9653 53.1523L36.848 46.2377L30.4373 36.747C28.3043 33.5726 26.1514 30.4117 23.9787 27.2643C23.9547 27.2563 23.9307 31.4723 23.9173 36.6243C23.8987 45.6377 23.8907 46.0003 23.7787 46.2137C23.6686 46.4621 23.474 46.6634 23.2293 46.7817C23.0293 46.883 22.856 46.9017 21.9093 46.9017H20.8267L20.5387 46.7203C20.3605 46.6078 20.2158 46.4494 20.12 46.2617L19.9867 45.9817L20 33.4377L20.0187 20.8883L20.2133 20.643C20.3425 20.4877 20.5 20.3584 20.6773 20.2617C20.9333 20.1363 21.032 20.1257 22.1173 20.1257C23.392 20.1257 23.6053 20.1737 23.936 20.5363C24.0293 20.6377 27.5013 25.8697 31.656 32.1683L44.28 51.2937L49.3467 58.9683L49.6053 58.8003C52.0441 57.1797 54.2548 55.2398 56.1787 53.0323C60.2107 48.4169 62.8263 42.7366 63.712 36.6723C63.968 34.9123 64 34.395 64 32.011C64 29.627 63.968 29.1097 63.712 27.3497C61.9733 15.3337 53.4187 5.235 41.8213 1.49367C39.6538 0.804518 37.4219 0.337233 35.16 0.099C34.5573 0.035 30.424 -0.0343333 29.9067 0.019M43.008 19.379C43.157 19.4535 43.2896 19.557 43.3981 19.6834C43.5066 19.8097 43.5888 19.9565 43.64 20.115C43.688 20.275 43.7013 23.755 43.688 31.595L43.6693 42.843L41.688 39.803L39.6987 36.763V28.587C39.6987 23.299 39.7227 20.3283 39.76 20.1843C39.8047 20.0179 39.8825 19.8622 39.9888 19.7266C40.0951 19.5909 40.2277 19.4781 40.3787 19.395C40.6373 19.2617 40.7307 19.251 41.712 19.251C42.6373 19.251 42.8 19.2643 43.008 19.3763" fill="black"/>
</g>
</svg>
