<svg width="64" height="64" viewBox="0 0 64 64" fill="none" xmlns="http://www.w3.org/2000/svg">
<path d="M49 0H15C6.71573 0 0 6.71573 0 15V49C0 57.2843 6.71573 64 15 64H49C57.2843 64 64 57.2843 64 49V15C64 6.71573 57.2843 0 49 0Z" fill="#242938"/>
<path d="M32.0003 36.7378C34.5763 36.7378 36.6643 34.6495 36.6643 32.0738C36.6643 29.498 34.5763 27.4098 32.0003 27.4098C29.4243 27.4098 27.3363 29.498 27.3363 32.0738C27.3363 34.6495 29.4246 36.7378 32.0003 36.7378Z" fill="#00D8FF"/>
<path d="M32.0005 22.5908C38.2625 22.5908 44.0797 23.4893 48.466 24.9995C53.7507 26.8188 57 29.5765 57 32.0738C57 34.676 53.5565 37.6058 47.8812 39.486C43.5907 40.9075 37.9447 41.6495 32.0005 41.6495C25.906 41.6495 20.1347 40.953 15.7957 39.4703C10.3062 37.594 7 34.6265 7 32.0738C7 29.5968 10.1025 26.8603 15.313 25.0438C19.7155 23.5088 25.6763 22.5908 31.9995 22.5908H32.0005Z" stroke="#00D8FF" stroke-width="0.556938"/>
<path d="M23.7452 27.3595C26.8737 21.935 30.558 17.3445 34.0575 14.2995C38.2735 10.6302 42.286 9.19325 44.449 10.4405C46.7032 11.7405 47.521 16.1875 46.3147 22.043C45.4035 26.4697 43.225 31.7312 40.2552 36.8807C37.2105 42.1602 33.7242 46.8117 30.2725 49.8287C25.9047 53.6467 21.682 55.0285 19.4707 53.7532C17.325 52.5167 16.5045 48.4615 17.534 43.0402C18.4037 38.4595 20.5865 32.8372 23.7442 27.3595H23.7452Z" stroke="#00D8FF" stroke-width="0.556938"/>
<path d="M23.7531 36.8945C20.6158 31.476 18.4798 25.9905 17.5883 21.438C16.515 15.9527 17.2738 11.759 19.435 10.508C21.6873 9.20399 25.9481 10.7165 30.4186 14.686C33.7986 17.687 37.2693 22.2012 40.2476 27.3457C43.3011 32.6202 45.5896 37.964 46.4798 42.461C47.6063 48.152 46.6945 52.5002 44.4853 53.779C42.3418 55.02 38.4191 53.7062 34.2363 50.1067C30.7023 47.0657 26.9213 42.367 23.7531 36.8945Z" stroke="#00D8FF" stroke-width="0.556938"/>
</svg>
