<svg width="1440" height="620" viewBox="0 0 1440 620" fill="none" xmlns="http://www.w3.org/2000/svg">
<rect width="1440" height="620" fill="#FAFAFA"/>
<path fill-rule="evenodd" clip-rule="evenodd" d="M0 6.27685L21.6 17.6421C43.2 29.0073 87.6 51.7378 130.8 40.3726C174 29.0073 218.4 -16.4536 261.6 6.27685C306 29.0073 349.2 119.929 392.4 131.295C436.8 142.66 480 74.4683 523.2 51.7378C567.6 29.0073 610.8 51.7378 654 85.8336C698.4 119.929 741.6 165.39 786 244.947C829.2 324.504 872.4 438.156 916.8 460.887C960 483.617 1003.2 415.426 1047.6 426.791C1090.8 438.156 1134 529.078 1178.4 517.713C1221.6 506.348 1266 392.695 1309.2 301.773C1352.4 210.851 1396.8 142.66 1418.4 108.564L1440 74.4683V620H1418.4C1396.8 620 1352.4 620 1309.2 620C1266 620 1221.6 620 1178.4 620C1134 620 1090.8 620 1047.6 620C1003.2 620 960 620 916.8 620C872.4 620 829.2 620 786 620C741.6 620 698.4 620 654 620C610.8 620 567.6 620 523.2 620C480 620 436.8 620 392.4 620C349.2 620 306 620 261.6 620C218.4 620 174 620 130.8 620C87.6 620 43.2 620 21.6 620H0V6.27685Z" fill="url(#paint0_linear_552_243)"/>
<path d="M723.761 465V450.455H728.676C729.813 450.455 730.745 450.649 731.474 451.037C732.204 451.42 732.743 451.948 733.094 452.621C733.444 453.293 733.619 454.058 733.619 454.915C733.619 455.772 733.444 456.532 733.094 457.195C732.743 457.857 732.206 458.378 731.482 458.757C730.757 459.131 729.831 459.318 728.705 459.318H724.727V457.727H728.648C729.424 457.727 730.049 457.614 730.523 457.386C731.001 457.159 731.347 456.837 731.56 456.42C731.777 455.999 731.886 455.497 731.886 454.915C731.886 454.332 731.777 453.823 731.56 453.388C731.342 452.952 730.994 452.616 730.516 452.379C730.037 452.138 729.405 452.017 728.619 452.017H725.523V465H723.761ZM730.608 458.466L734.188 465H732.142L728.619 458.466H730.608ZM740.784 465.227C739.733 465.227 738.826 464.995 738.064 464.531C737.306 464.062 736.721 463.409 736.309 462.571C735.902 461.728 735.699 460.748 735.699 459.631C735.699 458.513 735.902 457.528 736.309 456.676C736.721 455.819 737.294 455.152 738.028 454.673C738.767 454.19 739.628 453.949 740.613 453.949C741.181 453.949 741.743 454.044 742.297 454.233C742.85 454.422 743.355 454.73 743.809 455.156C744.264 455.578 744.626 456.136 744.896 456.832C745.166 457.528 745.301 458.385 745.301 459.403V460.114H736.892V458.665H743.596C743.596 458.049 743.473 457.5 743.227 457.017C742.985 456.534 742.64 456.153 742.19 455.874C741.745 455.594 741.219 455.455 740.613 455.455C739.946 455.455 739.368 455.62 738.88 455.952C738.397 456.278 738.026 456.705 737.765 457.23C737.505 457.756 737.375 458.319 737.375 458.92V459.886C737.375 460.71 737.517 461.409 737.801 461.982C738.09 462.55 738.49 462.983 739.001 463.281C739.512 463.575 740.107 463.722 740.784 463.722C741.224 463.722 741.622 463.66 741.977 463.537C742.337 463.409 742.647 463.22 742.907 462.969C743.168 462.713 743.369 462.396 743.511 462.017L745.13 462.472C744.96 463.021 744.673 463.504 744.271 463.92C743.868 464.332 743.371 464.654 742.779 464.886C742.188 465.114 741.522 465.227 740.784 465.227ZM751.061 465.256C750.369 465.256 749.742 465.125 749.179 464.865C748.615 464.6 748.168 464.219 747.836 463.722C747.505 463.22 747.339 462.614 747.339 461.903C747.339 461.278 747.462 460.772 747.708 460.384C747.955 459.991 748.284 459.683 748.696 459.46C749.108 459.238 749.562 459.072 750.059 458.963C750.561 458.849 751.065 458.759 751.572 458.693C752.235 458.608 752.772 458.544 753.184 458.501C753.601 458.454 753.904 458.376 754.093 458.267C754.288 458.158 754.385 457.969 754.385 457.699V457.642C754.385 456.941 754.193 456.397 753.809 456.009C753.431 455.62 752.855 455.426 752.083 455.426C751.283 455.426 750.656 455.601 750.201 455.952C749.747 456.302 749.427 456.676 749.243 457.074L747.652 456.506C747.936 455.843 748.315 455.327 748.788 454.957C749.266 454.583 749.787 454.323 750.35 454.176C750.919 454.025 751.477 453.949 752.027 453.949C752.377 453.949 752.779 453.991 753.234 454.077C753.693 454.157 754.136 454.325 754.562 454.581C754.993 454.837 755.35 455.223 755.635 455.739C755.919 456.255 756.061 456.946 756.061 457.812V465H754.385V463.523H754.299C754.186 463.759 753.996 464.013 753.731 464.283C753.466 464.553 753.113 464.782 752.673 464.972C752.233 465.161 751.695 465.256 751.061 465.256ZM751.316 463.75C751.979 463.75 752.538 463.62 752.993 463.359C753.452 463.099 753.797 462.763 754.029 462.351C754.266 461.939 754.385 461.506 754.385 461.051V459.517C754.314 459.602 754.157 459.68 753.916 459.751C753.679 459.818 753.404 459.877 753.092 459.929C752.784 459.976 752.484 460.019 752.19 460.057C751.901 460.09 751.667 460.118 751.487 460.142C751.051 460.199 750.644 460.291 750.265 460.419C749.891 460.542 749.588 460.729 749.356 460.98C749.129 461.226 749.015 461.562 749.015 461.989C749.015 462.571 749.231 463.011 749.662 463.31C750.097 463.603 750.649 463.75 751.316 463.75ZM763.552 465.227C762.529 465.227 761.648 464.986 760.91 464.503C760.171 464.02 759.603 463.355 759.205 462.507C758.808 461.66 758.609 460.691 758.609 459.602C758.609 458.494 758.812 457.517 759.219 456.669C759.631 455.817 760.204 455.152 760.938 454.673C761.677 454.19 762.539 453.949 763.523 453.949C764.29 453.949 764.982 454.091 765.597 454.375C766.213 454.659 766.717 455.057 767.11 455.568C767.503 456.08 767.747 456.676 767.842 457.358H766.165C766.038 456.861 765.754 456.42 765.313 456.037C764.878 455.649 764.29 455.455 763.552 455.455C762.898 455.455 762.326 455.625 761.833 455.966C761.345 456.302 760.964 456.778 760.69 457.393C760.42 458.004 760.285 458.722 760.285 459.545C760.285 460.388 760.417 461.122 760.683 461.747C760.952 462.372 761.331 462.857 761.819 463.203C762.311 463.549 762.889 463.722 763.552 463.722C763.987 463.722 764.383 463.646 764.738 463.494C765.093 463.343 765.394 463.125 765.64 462.841C765.886 462.557 766.061 462.216 766.165 461.818H767.842C767.747 462.462 767.513 463.042 767.138 463.558C766.769 464.07 766.279 464.477 765.668 464.78C765.062 465.078 764.357 465.227 763.552 465.227ZM775.036 454.091V455.511H769.383V454.091H775.036ZM771.031 451.477H772.707V461.875C772.707 462.348 772.775 462.704 772.913 462.94C773.055 463.172 773.235 463.329 773.452 463.409C773.675 463.485 773.909 463.523 774.156 463.523C774.34 463.523 774.492 463.513 774.61 463.494C774.728 463.471 774.823 463.452 774.894 463.438L775.235 464.943C775.121 464.986 774.963 465.028 774.759 465.071C774.556 465.118 774.298 465.142 773.985 465.142C773.512 465.142 773.048 465.04 772.593 464.837C772.143 464.633 771.769 464.323 771.471 463.906C771.177 463.49 771.031 462.964 771.031 462.33V451.477ZM788.325 449.773L783.637 467.188H782.103L786.79 449.773H788.325ZM807.698 450.455V465H805.993L798.067 453.58H797.925V465H796.164V450.455H797.868L805.823 461.903H805.965V450.455H807.698ZM815.569 465.227C814.518 465.227 813.611 464.995 812.849 464.531C812.091 464.062 811.506 463.409 811.094 462.571C810.687 461.728 810.484 460.748 810.484 459.631C810.484 458.513 810.687 457.528 811.094 456.676C811.506 455.819 812.079 455.152 812.813 454.673C813.552 454.19 814.414 453.949 815.398 453.949C815.967 453.949 816.528 454.044 817.082 454.233C817.636 454.422 818.14 454.73 818.594 455.156C819.049 455.578 819.411 456.136 819.681 456.832C819.951 457.528 820.086 458.385 820.086 459.403V460.114H811.677V458.665H818.381C818.381 458.049 818.258 457.5 818.012 457.017C817.771 456.534 817.425 456.153 816.975 455.874C816.53 455.594 816.004 455.455 815.398 455.455C814.731 455.455 814.153 455.62 813.665 455.952C813.183 456.278 812.811 456.705 812.55 457.23C812.29 457.756 812.16 458.319 812.16 458.92V459.886C812.16 460.71 812.302 461.409 812.586 461.982C812.875 462.55 813.275 462.983 813.786 463.281C814.298 463.575 814.892 463.722 815.569 463.722C816.009 463.722 816.407 463.66 816.762 463.537C817.122 463.409 817.432 463.22 817.692 462.969C817.953 462.713 818.154 462.396 818.296 462.017L819.915 462.472C819.745 463.021 819.459 463.504 819.056 463.92C818.654 464.332 818.156 464.654 817.565 464.886C816.973 465.114 816.308 465.227 815.569 465.227ZM823.593 454.091L826.206 458.551L828.82 454.091H830.752L827.229 459.545L830.752 465H828.82L826.206 460.767L823.593 465H821.661L825.127 459.545L821.661 454.091H823.593ZM837.888 454.091V455.511H832.234V454.091H837.888ZM833.882 451.477H835.558V461.875C835.558 462.348 835.627 462.704 835.764 462.94C835.906 463.172 836.086 463.329 836.304 463.409C836.527 463.485 836.761 463.523 837.007 463.523C837.192 463.523 837.343 463.513 837.462 463.494C837.58 463.471 837.675 463.452 837.746 463.438L838.087 464.943C837.973 464.986 837.814 465.028 837.611 465.071C837.407 465.118 837.149 465.142 836.837 465.142C836.363 465.142 835.899 465.04 835.445 464.837C834.995 464.633 834.621 464.323 834.322 463.906C834.029 463.49 833.882 462.964 833.882 462.33V451.477ZM841.631 465.114C841.28 465.114 840.98 464.988 840.729 464.737C840.478 464.486 840.352 464.186 840.352 463.835C840.352 463.485 840.478 463.184 840.729 462.933C840.98 462.682 841.28 462.557 841.631 462.557C841.981 462.557 842.282 462.682 842.533 462.933C842.784 463.184 842.909 463.485 842.909 463.835C842.909 464.067 842.85 464.28 842.732 464.474C842.618 464.669 842.464 464.825 842.27 464.943C842.08 465.057 841.867 465.114 841.631 465.114ZM845.917 454.091H847.593V465.795C847.593 466.468 847.477 467.05 847.245 467.543C847.018 468.035 846.672 468.416 846.208 468.686C845.749 468.956 845.169 469.091 844.468 469.091C844.411 469.091 844.354 469.091 844.298 469.091C844.241 469.091 844.184 469.091 844.127 469.091V467.528C844.184 467.528 844.236 467.528 844.283 467.528C844.331 467.528 844.383 467.528 844.44 467.528C844.951 467.528 845.325 467.377 845.562 467.074C845.799 466.776 845.917 466.349 845.917 465.795V454.091ZM846.741 452.273C846.414 452.273 846.132 452.161 845.896 451.939C845.664 451.716 845.548 451.449 845.548 451.136C845.548 450.824 845.664 450.556 845.896 450.334C846.132 450.111 846.414 450 846.741 450C847.067 450 847.347 450.111 847.579 450.334C847.816 450.556 847.934 450.824 847.934 451.136C847.934 451.449 847.816 451.716 847.579 451.939C847.347 452.161 847.067 452.273 846.741 452.273ZM858.39 456.534L856.885 456.96C856.79 456.709 856.65 456.465 856.466 456.229C856.286 455.987 856.039 455.788 855.727 455.632C855.414 455.476 855.014 455.398 854.527 455.398C853.859 455.398 853.303 455.552 852.858 455.859C852.417 456.162 852.197 456.548 852.197 457.017C852.197 457.434 852.349 457.763 852.652 458.004C852.955 458.246 853.428 458.447 854.072 458.608L855.691 459.006C856.667 459.242 857.394 459.605 857.872 460.092C858.35 460.575 858.589 461.198 858.589 461.96C858.589 462.585 858.409 463.144 858.049 463.636C857.694 464.129 857.197 464.517 856.558 464.801C855.919 465.085 855.175 465.227 854.328 465.227C853.215 465.227 852.294 464.986 851.565 464.503C850.836 464.02 850.374 463.314 850.18 462.386L851.771 461.989C851.922 462.576 852.209 463.016 852.63 463.31C853.056 463.603 853.613 463.75 854.299 463.75C855.081 463.75 855.701 463.584 856.16 463.253C856.624 462.917 856.856 462.514 856.856 462.045C856.856 461.667 856.724 461.349 856.458 461.094C856.193 460.833 855.786 460.639 855.237 460.511L853.419 460.085C852.42 459.848 851.686 459.482 851.217 458.984C850.753 458.482 850.521 457.855 850.521 457.102C850.521 456.487 850.694 455.942 851.039 455.469C851.39 454.995 851.866 454.624 852.467 454.354C853.073 454.084 853.76 453.949 854.527 453.949C855.606 453.949 856.454 454.186 857.069 454.659C857.69 455.133 858.13 455.758 858.39 456.534Z" fill="black"/>
<path d="M885.751 199H900.055L910.999 266.2H900.439L898.519 252.856V253.048H886.519L884.599 266.2H874.807L885.751 199ZM897.271 243.928L892.567 210.712H892.375L887.767 243.928H897.271Z" fill="#204359"/>
<path d="M836.085 208.6H825.045V199H857.685V208.6H846.645V266.2H836.085V208.6Z" fill="#204359"/>
<path d="M782.664 199H796.968L807.912 266.2H797.352L795.432 252.856V253.048H783.432L781.512 266.2H771.72L782.664 199ZM794.184 243.928L789.48 210.712H789.288L784.68 243.928H794.184Z" fill="#204359"/>
<path d="M716.585 199H732.233C737.673 199 741.641 200.28 744.137 202.84C746.633 205.336 747.881 209.208 747.881 214.456V218.584C747.881 225.56 745.577 229.976 740.969 231.832V232.024C743.529 232.792 745.321 234.36 746.345 236.728C747.433 239.096 747.977 242.264 747.977 246.232V258.04C747.977 259.96 748.041 261.528 748.169 262.744C748.297 263.896 748.617 265.048 749.129 266.2H738.377C737.993 265.112 737.737 264.088 737.609 263.128C737.481 262.168 737.417 260.44 737.417 257.944V245.656C737.417 242.584 736.905 240.44 735.881 239.224C734.921 238.008 733.225 237.4 730.793 237.4H727.145V266.2H716.585V199ZM730.985 227.8C733.097 227.8 734.665 227.256 735.689 226.168C736.777 225.08 737.321 223.256 737.321 220.696V215.512C737.321 213.08 736.873 211.32 735.977 210.232C735.145 209.144 733.801 208.6 731.945 208.6H727.145V227.8H730.985Z" fill="#204359"/>
<path d="M667.014 199H681.318L692.262 266.2H681.702L679.782 252.856V253.048H667.782L665.862 266.2H656.07L667.014 199ZM678.534 243.928L673.83 210.712H673.638L669.03 243.928H678.534Z" fill="#204359"/>
<path d="M902.046 421.52C900.318 421.52 898.995 421.029 898.078 420.048C897.16 419.067 896.702 417.68 896.702 415.888V404.112C896.702 402.32 897.16 400.933 898.078 399.952C898.995 398.971 900.318 398.48 902.046 398.48C903.774 398.48 905.096 398.971 906.014 399.952C906.931 400.933 907.39 402.32 907.39 404.112V415.888C907.39 417.68 906.931 419.067 906.014 420.048C905.096 421.029 903.774 421.52 902.046 421.52ZM902.046 418.32C903.262 418.32 903.87 417.584 903.87 416.112V403.888C903.87 402.416 903.262 401.68 902.046 401.68C900.83 401.68 900.222 402.416 900.222 403.888V416.112C900.222 417.584 900.83 418.32 902.046 418.32Z" fill="#204359"/>
<path d="M890.802 398.8H894.322V421.2H890.802V398.8Z" fill="#204359"/>
<path d="M879.802 398.8H883.322V418H889.113V421.2H879.802V398.8Z" fill="#204359"/>
<path d="M872.077 421.52C870.349 421.52 869.026 421.029 868.109 420.048C867.192 419.067 866.733 417.68 866.733 415.888V404.112C866.733 402.32 867.192 400.933 868.109 399.952C869.026 398.971 870.349 398.48 872.077 398.48C873.805 398.48 875.128 398.971 876.045 399.952C876.962 400.933 877.421 402.32 877.421 404.112V415.888C877.421 417.68 876.962 419.067 876.045 420.048C875.128 421.029 873.805 421.52 872.077 421.52ZM872.077 418.32C873.293 418.32 873.901 417.584 873.901 416.112V403.888C873.901 402.416 873.293 401.68 872.077 401.68C870.861 401.68 870.253 402.416 870.253 403.888V416.112C870.253 417.584 870.861 418.32 872.077 418.32Z" fill="#204359"/>
<path d="M855.989 398.8H865.301V402H859.509V408.24H864.053V411.44H859.509V421.2H855.989V398.8Z" fill="#204359"/>
<path d="M847.085 402H843.405V398.8H854.285V402H850.605V421.2H847.085V402Z" fill="#204359"/>
<path d="M831.489 398.8H836.705C838.518 398.8 839.841 399.227 840.673 400.08C841.505 400.912 841.921 402.203 841.921 403.952V405.328C841.921 407.653 841.153 409.125 839.617 409.744V409.808C840.47 410.064 841.068 410.587 841.409 411.376C841.772 412.165 841.953 413.221 841.953 414.544V418.48C841.953 419.12 841.974 419.643 842.017 420.048C842.06 420.432 842.166 420.816 842.337 421.2H838.753C838.625 420.837 838.54 420.496 838.497 420.176C838.454 419.856 838.433 419.28 838.433 418.448V414.352C838.433 413.328 838.262 412.613 837.921 412.208C837.601 411.803 837.036 411.6 836.225 411.6H835.009V421.2H831.489V398.8ZM836.289 408.4C836.993 408.4 837.516 408.219 837.857 407.856C838.22 407.493 838.401 406.885 838.401 406.032V404.304C838.401 403.493 838.252 402.907 837.953 402.544C837.676 402.181 837.228 402 836.609 402H835.009V408.4H836.289Z" fill="#204359"/>
<path d="M823.765 421.52C822.037 421.52 820.714 421.029 819.797 420.048C818.879 419.067 818.421 417.68 818.421 415.888V404.112C818.421 402.32 818.879 400.933 819.797 399.952C820.714 398.971 822.037 398.48 823.765 398.48C825.493 398.48 826.815 398.971 827.733 399.952C828.65 400.933 829.109 402.32 829.109 404.112V415.888C829.109 417.68 828.65 419.067 827.733 420.048C826.815 421.029 825.493 421.52 823.765 421.52ZM823.765 418.32C824.981 418.32 825.589 417.584 825.589 416.112V403.888C825.589 402.416 824.981 401.68 823.765 401.68C822.549 401.68 821.941 402.416 821.941 403.888V416.112C821.941 417.584 822.549 418.32 823.765 418.32Z" fill="#204359"/>
<path d="M806.333 398.8H811.517C813.266 398.8 814.578 399.269 815.453 400.208C816.327 401.147 816.765 402.523 816.765 404.336V406.544C816.765 408.357 816.327 409.733 815.453 410.672C814.578 411.611 813.266 412.08 811.517 412.08H809.853V421.2H806.333V398.8ZM811.517 408.88C812.093 408.88 812.519 408.72 812.797 408.4C813.095 408.08 813.245 407.536 813.245 406.768V404.112C813.245 403.344 813.095 402.8 812.797 402.48C812.519 402.16 812.093 402 811.517 402H809.853V408.88H811.517Z" fill="#204359"/>
<path d="M788.302 398.8H793.518C795.331 398.8 796.654 399.227 797.486 400.08C798.318 400.912 798.734 402.203 798.734 403.952V405.328C798.734 407.653 797.966 409.125 796.43 409.744V409.808C797.283 410.064 797.88 410.587 798.222 411.376C798.584 412.165 798.766 413.221 798.766 414.544V418.48C798.766 419.12 798.787 419.643 798.83 420.048C798.872 420.432 798.979 420.816 799.15 421.2H795.566C795.438 420.837 795.352 420.496 795.31 420.176C795.267 419.856 795.246 419.28 795.246 418.448V414.352C795.246 413.328 795.075 412.613 794.734 412.208C794.414 411.803 793.848 411.6 793.038 411.6H791.822V421.2H788.302V398.8ZM793.102 408.4C793.806 408.4 794.328 408.219 794.67 407.856C795.032 407.493 795.214 406.885 795.214 406.032V404.304C795.214 403.493 795.064 402.907 794.766 402.544C794.488 402.181 794.04 402 793.422 402H791.822V408.4H793.102Z" fill="#204359"/>
<path d="M776.677 398.8H786.277V402H780.197V407.92H785.029V411.12H780.197V418H786.277V421.2H776.677V398.8Z" fill="#204359"/>
<path d="M765.052 398.8H774.652V402H768.572V407.92H773.404V411.12H768.572V418H774.652V421.2H765.052V398.8Z" fill="#204359"/>
<path d="M751.395 398.8H755.811L759.235 412.208H759.299V398.8H762.435V421.2H758.819L754.595 404.848H754.531V421.2H751.395V398.8Z" fill="#204359"/>
<path d="M745.239 398.8H748.759V421.2H745.239V398.8Z" fill="#204359"/>
<path d="M737.731 421.52C736.024 421.52 734.723 421.04 733.827 420.08C732.931 419.099 732.483 417.701 732.483 415.888V404.112C732.483 402.299 732.931 400.912 733.827 399.952C734.723 398.971 736.024 398.48 737.731 398.48C739.438 398.48 740.739 398.971 741.635 399.952C742.531 400.912 742.979 402.299 742.979 404.112V406.032H739.651V403.888C739.651 402.416 739.043 401.68 737.827 401.68C736.611 401.68 736.003 402.416 736.003 403.888V416.144C736.003 417.595 736.611 418.32 737.827 418.32C739.043 418.32 739.651 417.595 739.651 416.144V411.76H737.891V408.56H742.979V415.888C742.979 417.701 742.531 419.099 741.635 420.08C740.739 421.04 739.438 421.52 737.731 421.52Z" fill="#204359"/>
<path d="M719.083 398.8H723.499L726.923 412.208H726.987V398.8H730.123V421.2H726.507L722.283 404.848H722.219V421.2H719.083V398.8Z" fill="#204359"/>
<path d="M707.458 398.8H717.058V402H710.978V407.92H715.81V411.12H710.978V418H717.058V421.2H707.458V398.8Z" fill="#204359"/>
<path d="M689.395 398.8H694.707C696.521 398.8 697.843 399.227 698.675 400.08C699.507 400.912 699.923 402.203 699.923 403.952V404.848C699.923 406 699.731 406.939 699.347 407.664C698.985 408.389 698.419 408.912 697.651 409.232V409.296C699.401 409.893 700.275 411.451 700.275 413.968V415.888C700.275 417.616 699.817 418.939 698.899 419.856C698.003 420.752 696.681 421.2 694.931 421.2H689.395V398.8ZM694.291 407.92C694.995 407.92 695.518 407.739 695.859 407.376C696.222 407.013 696.403 406.405 696.403 405.552V404.304C696.403 403.493 696.254 402.907 695.955 402.544C695.678 402.181 695.23 402 694.611 402H692.915V407.92H694.291ZM694.931 418C695.55 418 696.009 417.84 696.307 417.52C696.606 417.179 696.755 416.603 696.755 415.792V413.84C696.755 412.816 696.574 412.112 696.211 411.728C695.87 411.323 695.294 411.12 694.483 411.12H692.915V418H694.931Z" fill="#204359"/>
<path d="M677.77 398.8H687.37V402H681.29V407.92H686.122V411.12H681.29V418H687.37V421.2H677.77V398.8Z" fill="#204359"/>
<path d="M659.126 398.8H662.518L664.086 416.016H664.15L665.814 398.8H669.654L671.318 416.016H671.382L672.95 398.8H675.99L673.718 421.2H669.334L667.734 406.096H667.67L666.07 421.2H661.398L659.126 398.8Z" fill="#204359"/>
<path d="M980.702 373.48C973.79 373.48 968.499 371.517 964.83 367.592C961.161 363.667 959.326 358.12 959.326 350.952V303.848C959.326 296.68 961.161 291.133 964.83 287.208C968.499 283.283 973.79 281.32 980.702 281.32C987.614 281.32 992.905 283.283 996.574 287.208C1000.24 291.133 1002.08 296.68 1002.08 303.848V350.952C1002.08 358.12 1000.24 363.667 996.574 367.592C992.905 371.517 987.614 373.48 980.702 373.48ZM980.702 360.68C985.566 360.68 987.998 357.736 987.998 351.848V302.952C987.998 297.064 985.566 294.12 980.702 294.12C975.838 294.12 973.406 297.064 973.406 302.952V351.848C973.406 357.736 975.838 360.68 980.702 360.68Z" fill="#204359"/>
<path d="M895.925 282.6H916.789C924.042 282.6 929.333 284.307 932.661 287.72C935.989 291.048 937.653 296.211 937.653 303.208V308.712C937.653 318.013 934.581 323.901 928.437 326.376V326.632C931.85 327.656 934.24 329.747 935.605 332.904C937.056 336.061 937.781 340.285 937.781 345.576V361.32C937.781 363.88 937.866 365.971 938.037 367.592C938.208 369.128 938.634 370.664 939.317 372.2H924.981C924.469 370.749 924.128 369.384 923.957 368.104C923.786 366.824 923.701 364.52 923.701 361.192V344.808C923.701 340.712 923.018 337.853 921.653 336.232C920.373 334.611 918.112 333.8 914.869 333.8H910.005V372.2H895.925V282.6ZM915.125 321C917.941 321 920.032 320.275 921.397 318.824C922.848 317.373 923.573 314.941 923.573 311.528V304.616C923.573 301.373 922.976 299.027 921.781 297.576C920.672 296.125 918.88 295.4 916.405 295.4H910.005V321H915.125Z" fill="#204359"/>
<path d="M852.105 373.48C845.278 373.48 840.073 371.56 836.489 367.72C832.905 363.795 831.113 358.205 831.113 350.952V282.6H845.193V351.976C845.193 355.048 845.79 357.267 846.985 358.632C848.265 359.997 850.057 360.68 852.361 360.68C854.665 360.68 856.414 359.997 857.609 358.632C858.889 357.267 859.529 355.048 859.529 351.976V282.6H873.097V350.952C873.097 358.205 871.305 363.795 867.721 367.72C864.137 371.56 858.932 373.48 852.105 373.48Z" fill="#204359"/>
<path d="M788.793 373.48C781.966 373.48 776.761 371.56 773.177 367.72C769.593 363.795 767.801 358.205 767.801 350.952V303.848C767.801 296.595 769.593 291.048 773.177 287.208C776.761 283.283 781.966 281.32 788.793 281.32C795.62 281.32 800.825 283.283 804.409 287.208C807.993 291.048 809.785 296.595 809.785 303.848V311.528H796.473V302.952C796.473 297.064 794.041 294.12 789.177 294.12C784.313 294.12 781.881 297.064 781.881 302.952V351.976C781.881 357.779 784.313 360.68 789.177 360.68C794.041 360.68 796.473 357.779 796.473 351.976V334.44H789.433V321.64H809.785V350.952C809.785 358.205 807.993 363.795 804.409 367.72C800.825 371.56 795.62 373.48 788.793 373.48Z" fill="#204359"/>
<path d="M731.4 282.6H745.48V372.2H731.4V282.6Z" fill="#204359"/>
<path d="M664.85 282.6H678.93V319.08H694.034V282.6H708.114V372.2H694.034V331.88H678.93V372.2H664.85V282.6Z" fill="#204359"/>
<path d="M622.729 373.48C615.902 373.48 610.74 371.56 607.241 367.72C603.742 363.795 601.993 358.205 601.993 350.952V345.832H615.305V351.976C615.305 357.779 617.737 360.68 622.601 360.68C624.99 360.68 626.782 359.997 627.977 358.632C629.257 357.181 629.897 354.877 629.897 351.72C629.897 347.965 629.044 344.68 627.337 341.864C625.63 338.963 622.473 335.507 617.865 331.496C612.062 326.376 608.009 321.768 605.705 317.672C603.401 313.491 602.249 308.797 602.249 303.592C602.249 296.509 604.041 291.048 607.625 287.208C611.209 283.283 616.414 281.32 623.241 281.32C629.982 281.32 635.06 283.283 638.473 287.208C641.972 291.048 643.721 296.595 643.721 303.848V307.56H630.409V302.952C630.409 299.88 629.812 297.661 628.617 296.296C627.422 294.845 625.673 294.12 623.369 294.12C618.676 294.12 616.329 296.979 616.329 302.696C616.329 305.939 617.182 308.968 618.889 311.784C620.681 314.6 623.881 318.013 628.489 322.024C634.377 327.144 638.43 331.795 640.649 335.976C642.868 340.157 643.977 345.064 643.977 350.696C643.977 358.035 642.142 363.667 638.473 367.592C634.889 371.517 629.641 373.48 622.729 373.48Z" fill="#204359"/>
<path d="M567 282.6H581.08V372.2H567V282.6Z" fill="#204359"/>
<defs>
<linearGradient id="paint0_linear_552_243" x1="720" y1="0" x2="720" y2="620" gradientUnits="userSpaceOnUse">
<stop stop-color="#C1D4D9"/>
<stop offset="0.796538" stop-color="#C1D4D9"/>
<stop offset="1" stop-color="#FAFAFA"/>
</linearGradient>
</defs>
</svg>
