<svg width="317" height="60" viewBox="0 0 317 60" fill="none" xmlns="http://www.w3.org/2000/svg">
<path d="M109.894 0H114.826L118.599 23.1087H114.958L114.296 18.5199V18.586H110.159L109.497 23.1087H106.121L109.894 0ZM113.866 15.4498L112.244 4.02751H112.178L110.59 15.4498H113.866Z" fill="#204359"/>
<path d="M92.7712 3.30124H88.965V0H100.218V3.30124H96.4119V23.1087H92.7712V3.30124Z" fill="#204359"/>
<path d="M74.3534 0H79.285L83.0581 23.1087H79.4174L78.7554 18.5199V18.586H74.6182L73.9563 23.1087H70.5803L74.3534 0ZM78.3251 15.4498L76.7034 4.02751H76.6372L75.0485 15.4498H78.3251Z" fill="#204359"/>
<path d="M51.5717 0H56.9666C58.8422 0 60.2102 0.440165 61.0707 1.3205C61.9313 2.17882 62.3615 3.51032 62.3615 5.31499V6.73453C62.3615 9.13343 61.5672 10.652 59.9785 11.2902V11.3563C60.8611 11.6204 61.4789 12.1596 61.832 12.9739C62.2071 13.7882 62.3946 14.8776 62.3946 16.2421V20.3026C62.3946 20.9629 62.4167 21.5021 62.4608 21.9202C62.505 22.3164 62.6153 22.7125 62.7918 23.1087H59.0849C58.9525 22.7345 58.8642 22.3824 58.8201 22.0523C58.776 21.7221 58.7539 21.1279 58.7539 20.2696V16.044C58.7539 14.9876 58.5774 14.2503 58.2243 13.8322C57.8934 13.414 57.3086 13.205 56.4702 13.205H55.2125V23.1087H51.5717V0ZM56.5364 9.90372C57.2645 9.90372 57.8051 9.71665 58.1582 9.34251C58.5333 8.96837 58.7208 8.34113 58.7208 7.4608V5.67813C58.7208 4.84182 58.5664 4.23659 58.2574 3.86245C57.9706 3.48831 57.5072 3.30124 56.8674 3.30124H55.2125V9.90372H56.5364Z" fill="#204359"/>
<path d="M34.4813 0H39.4128L43.1859 23.1087H39.5452L38.8832 18.5199V18.586H34.7461L34.0841 23.1087H30.7082L34.4813 0ZM38.453 15.4498L36.8312 4.02751H36.765L35.1763 15.4498H38.453Z" fill="#204359"/>
<path d="M142.63 60C140.247 60 138.423 59.3251 137.158 57.9752C135.893 56.6254 135.261 54.718 135.261 52.2531V36.055C135.261 33.5901 135.893 31.6827 137.158 30.3329C138.423 28.983 140.247 28.3081 142.63 28.3081C145.013 28.3081 146.837 28.983 148.102 30.3329C149.367 31.6827 150 33.5901 150 36.055V52.2531C150 54.718 149.367 56.6254 148.102 57.9752C146.837 59.3251 145.013 60 142.63 60ZM142.63 55.5983C144.307 55.5983 145.146 54.586 145.146 52.5612V35.7469C145.146 33.7221 144.307 32.7098 142.63 32.7098C140.953 32.7098 140.115 33.7221 140.115 35.7469V52.5612C140.115 54.586 140.953 55.5983 142.63 55.5983Z" fill="#204359"/>
<path d="M113.402 28.7483H120.595C123.096 28.7483 124.92 29.3352 126.067 30.509C127.215 31.6534 127.788 33.4287 127.788 35.8349V37.7277C127.788 40.9262 126.729 42.951 124.611 43.8019V43.89C125.788 44.2421 126.612 44.961 127.082 46.0468C127.583 47.1325 127.833 48.5851 127.833 50.4044V55.8184C127.833 56.6988 127.862 57.4177 127.921 57.9753C127.98 58.5035 128.127 59.0316 128.362 59.5598H123.42C123.243 59.061 123.125 58.5915 123.067 58.1513C123.008 57.7112 122.978 56.9189 122.978 55.7744V50.1403C122.978 48.7318 122.743 47.7488 122.272 47.1912C121.831 46.6337 121.051 46.3549 119.933 46.3549H118.256V59.5598H113.402V28.7483ZM120.022 41.9532C120.992 41.9532 121.713 41.7038 122.184 41.205C122.684 40.7061 122.934 39.8698 122.934 38.696V36.3191C122.934 35.204 122.728 34.3971 122.316 33.8982C121.934 33.3994 121.316 33.1499 120.463 33.1499H118.256V41.9532H120.022Z" fill="#204359"/>
<path d="M98.2944 60C95.9408 60 94.1462 59.3398 92.9106 58.0193C91.6749 56.6694 91.0571 54.7474 91.0571 52.2531V28.7483H95.9114V52.6052C95.9114 53.6616 96.1174 54.4246 96.5292 54.8941C96.9705 55.3636 97.5884 55.5984 98.3827 55.5984C99.1771 55.5984 99.7802 55.3636 100.192 54.8941C100.633 54.4246 100.854 53.6616 100.854 52.6052V28.7483H105.532V52.2531C105.532 54.7474 104.914 56.6694 103.678 58.0193C102.443 59.3398 100.648 60 98.2944 60Z" fill="#204359"/>
<path d="M76.4666 60C74.113 60 72.3184 59.3397 71.0828 58.0192C69.8471 56.6694 69.2293 54.7474 69.2293 52.2531V36.055C69.2293 33.5607 69.8471 31.6534 71.0828 30.3329C72.3184 28.983 74.113 28.3081 76.4666 28.3081C78.8202 28.3081 80.6149 28.983 81.8505 30.3329C83.0861 31.6534 83.704 33.5607 83.704 36.055V38.696H79.1144V35.7469C79.1144 33.7221 78.276 32.7098 76.599 32.7098C74.9221 32.7098 74.0836 33.7221 74.0836 35.7469V52.6052C74.0836 54.6006 74.9221 55.5983 76.599 55.5983C78.276 55.5983 79.1144 54.6006 79.1144 52.6052V46.575H76.6873V42.1733H83.704V52.2531C83.704 54.7474 83.0861 56.6694 81.8505 58.0192C80.6149 59.3397 78.8202 60 76.4666 60Z" fill="#204359"/>
<path d="M56.6795 28.7483H61.5338V59.5598H56.6795V28.7483Z" fill="#204359"/>
<path d="M33.7353 28.7483H38.5896V41.293H43.797V28.7483H48.6513V59.5598H43.797V45.6946H38.5896V59.5598H33.7353V28.7483Z" fill="#204359"/>
<path d="M19.2134 60C16.8598 60 15.0799 59.3397 13.8737 58.0192C12.6675 56.6694 12.0644 54.7474 12.0644 52.2531V50.4924H16.6539V52.6052C16.6539 54.6006 17.4924 55.5983 19.1693 55.5983C19.9931 55.5983 20.6109 55.3636 21.0228 54.8941C21.4641 54.3952 21.6847 53.6029 21.6847 52.5172C21.6847 51.226 21.3905 50.0963 20.8021 49.1279C20.2137 48.1302 19.1252 46.9418 17.5365 45.5626C15.5359 43.8019 14.1385 42.2173 13.3442 40.8088C12.5498 39.3709 12.1526 37.757 12.1526 35.967C12.1526 33.5314 12.7705 31.6534 14.0061 30.3329C15.2417 28.983 17.0364 28.3081 19.39 28.3081C21.7141 28.3081 23.4646 28.983 24.6414 30.3329C25.8477 31.6534 26.4508 33.5607 26.4508 36.055V37.3315H21.8612V35.7469C21.8612 34.6905 21.6553 33.9275 21.2434 33.458C20.8315 32.9592 20.2284 32.7098 19.4341 32.7098C17.816 32.7098 17.0069 33.6928 17.0069 35.6589C17.0069 36.7739 17.3011 37.8157 17.8895 38.784C18.5074 39.7524 19.6106 40.9262 21.1993 42.3054C23.2293 44.066 24.6267 45.6653 25.3917 47.1032C26.1566 48.541 26.539 50.2283 26.539 52.1651C26.539 54.6887 25.9065 56.6254 24.6414 57.9752C23.4058 59.3251 21.5965 60 19.2134 60Z" fill="#204359"/>
<path d="M0 28.7483H4.8543V59.5598H0V28.7483Z" fill="#204359"/>
<path d="M313.771 37.0008C312.727 37.0008 311.928 36.7026 311.374 36.1063C310.819 35.5099 310.542 34.6672 310.542 33.5782V26.4217C310.542 25.3327 310.819 24.49 311.374 23.8936C311.928 23.2972 312.727 22.999 313.771 22.999C314.815 22.999 315.614 23.2972 316.169 23.8936C316.723 24.49 317 25.3327 317 26.4217V33.5782C317 34.6672 316.723 35.5099 316.169 36.1063C315.614 36.7026 314.815 37.0008 313.771 37.0008ZM313.771 35.0561C314.506 35.0561 314.873 34.6088 314.873 33.7143V26.2856C314.873 25.391 314.506 24.9437 313.771 24.9437C313.036 24.9437 312.669 25.391 312.669 26.2856V33.7143C312.669 34.6088 313.036 35.0561 313.771 35.0561Z" fill="#204359"/>
<path d="M306.977 23.1936H309.104V36.8065H306.977V23.1936Z" fill="#204359"/>
<path d="M300.331 23.1936H302.458V34.8618H305.958V36.8065H300.331V23.1936Z" fill="#204359"/>
<path d="M295.664 37.0008C294.62 37.0008 293.821 36.7026 293.267 36.1063C292.713 35.5099 292.435 34.6672 292.435 33.5782V26.4217C292.435 25.3327 292.713 24.49 293.267 23.8936C293.821 23.2972 294.62 22.999 295.664 22.999C296.708 22.999 297.507 23.2972 298.062 23.8936C298.616 24.49 298.893 25.3327 298.893 26.4217V33.5782C298.893 34.6672 298.616 35.5099 298.062 36.1063C297.507 36.7026 296.708 37.0008 295.664 37.0008ZM295.664 35.0561C296.399 35.0561 296.766 34.6088 296.766 33.7143V26.2856C296.766 25.391 296.399 24.9437 295.664 24.9437C294.929 24.9437 294.562 25.391 294.562 26.2856V33.7143C294.562 34.6088 294.929 35.0561 295.664 35.0561Z" fill="#204359"/>
<path d="M285.944 23.1936H291.57V25.1383H288.071V28.9305H290.816V30.8751H288.071V36.8065H285.944V23.1936Z" fill="#204359"/>
<path d="M280.564 25.1383H278.341V23.1936H284.914V25.1383H282.691V36.8065H280.564V25.1383Z" fill="#204359"/>
<path d="M271.141 23.1936H274.293C275.388 23.1936 276.187 23.4529 276.69 23.9715C277.193 24.4771 277.444 25.2615 277.444 26.3246V27.1608C277.444 28.5739 276.98 29.4685 276.052 29.8445V29.8834C276.568 30.0389 276.929 30.3566 277.135 30.8363C277.354 31.3159 277.463 31.9577 277.463 32.7615V35.1535C277.463 35.5424 277.476 35.86 277.502 36.1064C277.528 36.3397 277.592 36.5731 277.695 36.8065H275.53C275.453 36.5861 275.401 36.3786 275.375 36.1842C275.35 35.9897 275.337 35.6396 275.337 35.134V32.6448C275.337 32.0225 275.234 31.5882 275.027 31.3419C274.834 31.0955 274.492 30.9724 274.003 30.9724H273.268V36.8065H271.141V23.1936ZM274.041 29.0277C274.467 29.0277 274.782 28.9175 274.989 28.6971C275.208 28.4767 275.317 28.1072 275.317 27.5886V26.5385C275.317 26.0458 275.227 25.6893 275.047 25.4689C274.879 25.2485 274.608 25.1383 274.235 25.1383H273.268V29.0277H274.041Z" fill="#204359"/>
<path d="M266.474 37.0008C265.43 37.0008 264.631 36.7026 264.077 36.1063C263.522 35.5099 263.245 34.6672 263.245 33.5782V26.4217C263.245 25.3327 263.522 24.49 264.077 23.8936C264.631 23.2972 265.43 22.999 266.474 22.999C267.518 22.999 268.317 23.2972 268.871 23.8936C269.426 24.49 269.703 25.3327 269.703 26.4217V33.5782C269.703 34.6672 269.426 35.5099 268.871 36.1063C268.317 36.7026 267.518 37.0008 266.474 37.0008ZM266.474 35.0561C267.209 35.0561 267.576 34.6088 267.576 33.7143V26.2856C267.576 25.391 267.209 24.9437 266.474 24.9437C265.739 24.9437 265.372 25.391 265.372 26.2856V33.7143C265.372 34.6088 265.739 35.0561 266.474 35.0561Z" fill="#204359"/>
<path d="M255.942 23.1936H259.074C260.131 23.1936 260.924 23.4788 261.452 24.0493C261.981 24.6197 262.245 25.4559 262.245 26.5579V27.8998C262.245 29.0018 261.981 29.838 261.452 30.4084C260.924 30.9789 260.131 31.2641 259.074 31.2641H258.069V36.8065H255.942V23.1936ZM259.074 29.3194C259.422 29.3194 259.68 29.2222 259.847 29.0277C260.028 28.8332 260.118 28.5026 260.118 28.0359V26.4218C260.118 25.9551 260.028 25.6245 259.847 25.43C259.68 25.2355 259.422 25.1383 259.074 25.1383H258.069V29.3194H259.074Z" fill="#204359"/>
<path d="M245.047 23.1936H248.199C249.295 23.1936 250.094 23.4529 250.596 23.9715C251.099 24.4771 251.35 25.2615 251.35 26.3246V27.1608C251.35 28.5739 250.886 29.4685 249.958 29.8445V29.8834C250.474 30.0389 250.835 30.3566 251.041 30.8363C251.26 31.3159 251.37 31.9577 251.37 32.7615V35.1535C251.37 35.5424 251.383 35.86 251.408 36.1064C251.434 36.3397 251.499 36.5731 251.602 36.8065H249.436C249.359 36.5861 249.307 36.3786 249.282 36.1842C249.256 35.9897 249.243 35.6396 249.243 35.134V32.6448C249.243 32.0225 249.14 31.5882 248.934 31.3419C248.74 31.0955 248.399 30.9724 247.909 30.9724H247.174V36.8065H245.047V23.1936ZM247.948 29.0277C248.373 29.0277 248.689 28.9175 248.895 28.6971C249.114 28.4767 249.224 28.1072 249.224 27.5886V26.5385C249.224 26.0458 249.133 25.6893 248.953 25.4689C248.785 25.2485 248.515 25.1383 248.141 25.1383H247.174V29.0277H247.948Z" fill="#204359"/>
<path d="M238.024 23.1936H243.824V25.1383H240.15V28.736H243.07V30.6807H240.15V34.8618H243.824V36.8065H238.024V23.1936Z" fill="#204359"/>
<path d="M231 23.1936H236.8V25.1383H233.127V28.736H236.046V30.6807H233.127V34.8618H236.8V36.8065H231V23.1936Z" fill="#204359"/>
<path d="M222.749 23.1936H225.417L227.486 31.3419H227.524V23.1936H229.419V36.8065H227.234L224.682 26.8691H224.644V36.8065H222.749V23.1936Z" fill="#204359"/>
<path d="M219.029 23.1936H221.156V36.8065H219.029V23.1936Z" fill="#204359"/>
<path d="M214.493 37.0008C213.462 37.0008 212.676 36.7091 212.134 36.1257C211.593 35.5293 211.322 34.6802 211.322 33.5782V26.4217C211.322 25.3197 211.593 24.477 212.134 23.8936C212.676 23.2972 213.462 22.999 214.493 22.999C215.524 22.999 216.31 23.2972 216.852 23.8936C217.393 24.477 217.664 25.3197 217.664 26.4217V27.5885H215.653V26.2856C215.653 25.391 215.286 24.9437 214.551 24.9437C213.816 24.9437 213.449 25.391 213.449 26.2856V33.7337C213.449 34.6153 213.816 35.0561 214.551 35.0561C215.286 35.0561 215.653 34.6153 215.653 33.7337V31.0695H214.59V29.1248H217.664V33.5782C217.664 34.6802 217.393 35.5293 216.852 36.1257C216.31 36.7091 215.524 37.0008 214.493 37.0008Z" fill="#204359"/>
<path d="M203.226 23.1936H205.894L207.963 31.3419H208.001V23.1936H209.896V36.8065H207.711L205.159 26.8691H205.121V36.8065H203.226V23.1936Z" fill="#204359"/>
<path d="M196.202 23.1936H202.002V25.1383H198.329V28.736H201.248V30.6807H198.329V34.8618H202.002V36.8065H196.202V23.1936Z" fill="#204359"/>
<path d="M185.289 23.1936H188.498C189.594 23.1936 190.393 23.4529 190.896 23.9715C191.398 24.4771 191.65 25.2615 191.65 26.3246V26.8691C191.65 27.5692 191.534 28.1396 191.302 28.5804C191.083 29.0212 190.741 29.3388 190.277 29.5333V29.5722C191.334 29.9352 191.862 30.8816 191.862 32.4115V33.5783C191.862 34.6284 191.585 35.4322 191.031 35.9897C190.49 36.5342 189.69 36.8065 188.634 36.8065H185.289V23.1936ZM188.247 28.736C188.672 28.736 188.988 28.6258 189.194 28.4054C189.413 28.185 189.523 27.8155 189.523 27.2969V26.5385C189.523 26.0458 189.433 25.6893 189.252 25.4689C189.085 25.2485 188.814 25.1383 188.44 25.1383H187.415V28.736H188.247ZM188.634 34.8618C189.007 34.8618 189.284 34.7645 189.465 34.5701C189.645 34.3626 189.736 34.0126 189.736 33.5199V32.3337C189.736 31.7114 189.626 31.2835 189.407 31.0502C189.201 30.8038 188.853 30.6807 188.363 30.6807H187.415V34.8618H188.634Z" fill="#204359"/>
<path d="M178.265 23.1936H184.065V25.1383H180.392V28.736H183.311V30.6807H180.392V34.8618H184.065V36.8065H178.265V23.1936Z" fill="#204359"/>
<path d="M167 23.1936H169.049L169.997 33.6561H170.035L171.041 23.1936H173.361L174.366 33.6561H174.405L175.352 23.1936H177.189L175.816 36.8065H173.168L172.201 27.6275H172.162L171.196 36.8065H168.373L167 23.1936Z" fill="#204359"/>
</svg>
