<svg width="416" height="272" viewBox="0 0 416 272" fill="none" xmlns="http://www.w3.org/2000/svg">
<path d="M304.774 0H318.451L328.915 67.345H318.818L316.982 53.9722V54.1646H305.508L303.673 67.345H294.31L304.774 0ZM315.789 45.0249L311.291 11.7373H311.108L306.702 45.0249H315.789Z" fill="#204359"/>
<path d="M257.285 9.62071H246.729V0H277.938V9.62071H267.382V67.345H257.285V9.62071Z" fill="#204359"/>
<path d="M206.207 0H219.884L230.348 67.345H220.251L218.415 53.9722V54.1646H206.941L205.105 67.345H195.743L206.207 0ZM217.222 45.0249L212.724 11.7373H212.54L208.134 45.0249H217.222Z" fill="#204359"/>
<path d="M143.026 0H157.987C163.189 0 166.983 1.28276 169.369 3.84829C171.756 6.34967 172.949 10.23 172.949 15.4893V19.6262C172.949 26.6173 170.746 31.0428 166.34 32.9028V33.0952C168.788 33.8649 170.502 35.4363 171.481 37.8094C172.521 40.1825 173.041 43.3573 173.041 47.3339V59.1674C173.041 61.0915 173.102 62.6629 173.225 63.8815C173.347 65.036 173.653 66.1905 174.143 67.345H163.862C163.495 66.2546 163.25 65.2284 163.128 64.2663C163.005 63.3043 162.944 61.5725 162.944 59.0712V46.7566C162.944 43.678 162.455 41.5294 161.475 40.3108C160.558 39.0921 158.936 38.4828 156.611 38.4828H153.123V67.345H143.026V0ZM156.794 28.8621C158.814 28.8621 160.313 28.317 161.292 27.2266C162.332 26.1363 162.852 24.3083 162.852 21.7428V16.5476C162.852 14.1104 162.424 12.3466 161.567 11.2562C160.772 10.1659 159.487 9.62071 157.712 9.62071H153.123V28.8621H156.794Z" fill="#204359"/>
<path d="M95.6281 0H109.305L119.769 67.345H109.672L107.836 53.9722V54.1646H96.3624L94.5266 67.345H85.1639L95.6281 0ZM106.643 45.0249L102.145 11.7373H101.962L97.5556 45.0249H106.643Z" fill="#204359"/>
<path d="M320.354 223C318.702 223 317.437 222.508 316.56 221.525C315.683 220.541 315.244 219.152 315.244 217.356V205.554C315.244 203.759 315.683 202.369 316.56 201.385C317.437 200.402 318.702 199.91 320.354 199.91C322.006 199.91 323.271 200.402 324.148 201.385C325.025 202.369 325.464 203.759 325.464 205.554V217.356C325.464 219.152 325.025 220.541 324.148 221.525C323.271 222.508 322.006 223 320.354 223ZM320.354 219.793C321.517 219.793 322.098 219.055 322.098 217.58V205.33C322.098 203.855 321.517 203.117 320.354 203.117C319.191 203.117 318.61 203.855 318.61 205.33V217.58C318.61 219.055 319.191 219.793 320.354 219.793Z" fill="#204359"/>
<path d="M309.603 200.231H312.969V222.679H309.603V200.231Z" fill="#204359"/>
<path d="M299.085 200.231H302.451V219.472H307.989V222.679H299.085V200.231Z" fill="#204359"/>
<path d="M291.7 223C290.047 223 288.783 222.508 287.906 221.525C287.028 220.541 286.59 219.152 286.59 217.356V205.554C286.59 203.759 287.028 202.369 287.906 201.385C288.783 200.402 290.047 199.91 291.7 199.91C293.352 199.91 294.616 200.402 295.494 201.385C296.371 202.369 296.809 203.759 296.809 205.554V217.356C296.809 219.152 296.371 220.541 295.494 221.525C294.616 222.508 293.352 223 291.7 223ZM291.7 219.793C292.862 219.793 293.444 219.055 293.444 217.58V205.33C293.444 203.855 292.862 203.117 291.7 203.117C290.537 203.117 289.955 203.855 289.955 205.33V217.58C289.955 219.055 290.537 219.793 291.7 219.793Z" fill="#204359"/>
<path d="M276.317 200.231H285.221V203.438H279.683V209.691H284.027V212.898H279.683V222.679H276.317V200.231Z" fill="#204359"/>
<path d="M267.803 203.438H264.285V200.231H274.687V203.438H271.169V222.679H267.803V203.438Z" fill="#204359"/>
<path d="M252.891 200.231H257.879C259.612 200.231 260.877 200.659 261.673 201.514C262.468 202.348 262.866 203.641 262.866 205.394V206.773C262.866 209.103 262.132 210.579 260.663 211.199V211.263C261.479 211.519 262.05 212.043 262.376 212.834C262.723 213.625 262.896 214.683 262.896 216.009V219.953C262.896 220.595 262.917 221.119 262.958 221.525C262.998 221.91 263.1 222.294 263.264 222.679H259.837C259.714 222.316 259.633 221.974 259.592 221.653C259.551 221.332 259.531 220.755 259.531 219.921V215.817C259.531 214.79 259.368 214.074 259.041 213.668C258.735 213.262 258.195 213.059 257.42 213.059H256.257V222.679H252.891V200.231ZM257.481 209.852C258.154 209.852 258.654 209.67 258.98 209.306C259.327 208.943 259.5 208.334 259.5 207.479V205.747C259.5 204.934 259.357 204.346 259.072 203.983C258.807 203.62 258.378 203.438 257.787 203.438H256.257V209.852H257.481Z" fill="#204359"/>
<path d="M245.505 223C243.853 223 242.589 222.508 241.711 221.525C240.834 220.541 240.396 219.152 240.396 217.356V205.554C240.396 203.759 240.834 202.369 241.711 201.385C242.589 200.402 243.853 199.91 245.505 199.91C247.158 199.91 248.422 200.402 249.299 201.385C250.177 202.369 250.615 203.759 250.615 205.554V217.356C250.615 219.152 250.177 220.541 249.299 221.525C248.422 222.508 247.158 223 245.505 223ZM245.505 219.793C246.668 219.793 247.249 219.055 247.249 217.58V205.33C247.249 203.855 246.668 203.117 245.505 203.117C244.343 203.117 243.761 203.855 243.761 205.33V217.58C243.761 219.055 244.343 219.793 245.505 219.793Z" fill="#204359"/>
<path d="M228.838 200.231H233.795C235.467 200.231 236.722 200.701 237.558 201.642C238.395 202.583 238.813 203.962 238.813 205.779V207.992C238.813 209.809 238.395 211.188 237.558 212.129C236.722 213.069 235.467 213.54 233.795 213.54H232.204V222.679H228.838V200.231ZM233.795 210.333C234.346 210.333 234.754 210.172 235.019 209.852C235.304 209.531 235.447 208.986 235.447 208.216V205.554C235.447 204.785 235.304 204.24 235.019 203.919C234.754 203.598 234.346 203.438 233.795 203.438H232.204V210.333H233.795Z" fill="#204359"/>
<path d="M211.598 200.231H216.585C218.319 200.231 219.583 200.659 220.379 201.514C221.174 202.348 221.572 203.641 221.572 205.394V206.773C221.572 209.103 220.838 210.579 219.369 211.199V211.263C220.185 211.519 220.756 212.043 221.083 212.834C221.429 213.625 221.603 214.683 221.603 216.009V219.953C221.603 220.595 221.623 221.119 221.664 221.525C221.705 221.91 221.807 222.294 221.97 222.679H218.543C218.421 222.316 218.339 221.974 218.298 221.653C218.257 221.332 218.237 220.755 218.237 219.921V215.817C218.237 214.79 218.074 214.074 217.747 213.668C217.442 213.262 216.901 213.059 216.126 213.059H214.963V222.679H211.598V200.231ZM216.187 209.852C216.86 209.852 217.36 209.67 217.686 209.306C218.033 208.943 218.206 208.334 218.206 207.479V205.747C218.206 204.934 218.064 204.346 217.778 203.983C217.513 203.62 217.085 203.438 216.493 203.438H214.963V209.852H216.187Z" fill="#204359"/>
<path d="M200.482 200.231H209.661V203.438H203.848V209.371H208.468V212.578H203.848V219.472H209.661V222.679H200.482V200.231Z" fill="#204359"/>
<path d="M189.367 200.231H198.546V203.438H192.733V209.371H197.353V212.578H192.733V219.472H198.546V222.679H189.367V200.231Z" fill="#204359"/>
<path d="M176.31 200.231H180.532L183.806 213.668H183.867V200.231H186.865V222.679H183.408L179.369 206.292H179.308V222.679H176.31V200.231Z" fill="#204359"/>
<path d="M170.423 200.231H173.789V222.679H170.423V200.231Z" fill="#204359"/>
<path d="M163.245 223C161.613 223 160.368 222.519 159.512 221.557C158.655 220.573 158.227 219.173 158.227 217.356V205.554C158.227 203.737 158.655 202.348 159.512 201.385C160.368 200.402 161.613 199.91 163.245 199.91C164.876 199.91 166.121 200.402 166.977 201.385C167.834 202.348 168.262 203.737 168.262 205.554V207.479H165.08V205.33C165.08 203.855 164.499 203.117 163.336 203.117C162.174 203.117 161.592 203.855 161.592 205.33V217.612C161.592 219.066 162.174 219.793 163.336 219.793C164.499 219.793 165.08 219.066 165.08 217.612V213.219H163.397V210.012H168.262V217.356C168.262 219.173 167.834 220.573 166.977 221.557C166.121 222.519 164.876 223 163.245 223Z" fill="#204359"/>
<path d="M145.414 200.231H149.636L152.91 213.668H152.971V200.231H155.97V222.679H152.512L148.474 206.292H148.412V222.679H145.414V200.231Z" fill="#204359"/>
<path d="M134.299 200.231H143.478V203.438H137.664V209.371H142.284V212.578H137.664V219.472H143.478V222.679H134.299V200.231Z" fill="#204359"/>
<path d="M117.028 200.231H122.107C123.841 200.231 125.106 200.659 125.901 201.514C126.697 202.348 127.095 203.641 127.095 205.394V206.292C127.095 207.446 126.911 208.387 126.544 209.114C126.197 209.841 125.657 210.365 124.922 210.685V210.75C126.595 211.348 127.431 212.909 127.431 215.432V217.356C127.431 219.088 126.993 220.413 126.116 221.332C125.259 222.23 123.994 222.679 122.322 222.679H117.028V200.231ZM121.71 209.371C122.383 209.371 122.882 209.189 123.209 208.825C123.556 208.462 123.729 207.853 123.729 206.998V205.747C123.729 204.934 123.586 204.346 123.301 203.983C123.035 203.62 122.607 203.438 122.016 203.438H120.394V209.371H121.71ZM122.322 219.472C122.913 219.472 123.352 219.312 123.637 218.991C123.923 218.649 124.066 218.072 124.066 217.26V215.303C124.066 214.277 123.892 213.572 123.545 213.187C123.219 212.781 122.668 212.578 121.893 212.578H120.394V219.472H122.322Z" fill="#204359"/>
<path d="M105.913 200.231H115.092V203.438H109.279V209.371H113.899V212.578H109.279V219.472H115.092V222.679H105.913V200.231Z" fill="#204359"/>
<path d="M88.0861 200.231H91.3293L92.8286 217.484H92.8898L94.4808 200.231H98.1524L99.7434 217.484H99.8046L101.304 200.231H104.211L102.038 222.679H97.8464L96.3166 207.543H96.2554L94.7256 222.679H90.2584L88.0861 200.231Z" fill="#204359"/>
<path d="M395.561 174.856C388.952 174.856 383.894 172.889 380.385 168.956C376.877 165.022 375.123 159.463 375.123 152.28V105.074C375.123 97.8907 376.877 92.3321 380.385 88.3983C383.894 84.4645 388.952 82.4976 395.561 82.4976C402.17 82.4976 407.229 84.4645 410.737 88.3983C414.246 92.3321 416 97.8907 416 105.074V152.28C416 159.463 414.246 165.022 410.737 168.956C407.229 172.889 402.17 174.856 395.561 174.856ZM395.561 162.029C400.212 162.029 402.537 159.078 402.537 153.178V104.176C402.537 98.2755 400.212 95.3252 395.561 95.3252C390.911 95.3252 388.585 98.2755 388.585 104.176V153.178C388.585 159.078 390.911 162.029 395.561 162.029Z" fill="#204359"/>
<path d="M314.502 83.7803H334.451C341.386 83.7803 346.445 85.4907 349.627 88.9114C352.809 92.2466 354.4 97.4204 354.4 104.433V109.949C354.4 119.27 351.463 125.171 345.588 127.651V127.907C348.852 128.934 351.136 131.029 352.442 134.193C353.829 137.357 354.522 141.59 354.522 146.892V162.67C354.522 165.236 354.604 167.331 354.767 168.956C354.93 170.495 355.338 172.034 355.991 173.574H342.284C341.794 172.12 341.468 170.752 341.305 169.469C341.141 168.186 341.06 165.877 341.06 162.542V146.123C341.06 142.018 340.407 139.153 339.102 137.528C337.878 135.903 335.716 135.091 332.615 135.091H327.964V173.574H314.502V83.7803ZM332.86 122.263C335.552 122.263 337.551 121.536 338.857 120.082C340.244 118.629 340.937 116.191 340.937 112.771V105.844C340.937 102.594 340.366 100.242 339.224 98.7886C338.163 97.3348 336.45 96.6079 334.084 96.6079H327.964V122.263H332.86Z" fill="#204359"/>
<path d="M272.603 174.856C266.076 174.856 261.099 172.932 257.672 169.084C254.245 165.15 252.532 159.549 252.532 152.28V83.7803H265.994V153.306C265.994 156.385 266.565 158.608 267.708 159.976C268.932 161.345 270.645 162.029 272.848 162.029C275.051 162.029 276.724 161.345 277.866 159.976C279.09 158.608 279.702 156.385 279.702 153.306V83.7803H292.675V152.28C292.675 159.549 290.961 165.15 287.534 169.084C284.108 172.932 279.131 174.856 272.603 174.856Z" fill="#204359"/>
<path d="M212.067 174.856C205.54 174.856 200.563 172.932 197.136 169.084C193.709 165.15 191.996 159.549 191.996 152.28V105.074C191.996 97.8052 193.709 92.2465 197.136 88.3983C200.563 84.4645 205.54 82.4976 212.067 82.4976C218.595 82.4976 223.572 84.4645 226.999 88.3983C230.426 92.2465 232.139 97.8052 232.139 105.074V112.771H219.411V104.176C219.411 98.2755 217.085 95.3252 212.435 95.3252C207.784 95.3252 205.459 98.2755 205.459 104.176V153.306C205.459 159.121 207.784 162.029 212.435 162.029C217.085 162.029 219.411 159.121 219.411 153.306V135.732H212.679V122.905H232.139V152.28C232.139 159.549 230.426 165.15 226.999 169.084C223.572 172.932 218.595 174.856 212.067 174.856Z" fill="#204359"/>
<path d="M157.191 83.7803H170.654V173.574H157.191V83.7803Z" fill="#204359"/>
<path d="M93.5593 83.7803H107.022V120.339H121.464V83.7803H134.926V173.574H121.464V133.167H107.022V173.574H93.5593V83.7803Z" fill="#204359"/>
<path d="M53.2853 174.856C46.758 174.856 41.8217 172.932 38.4764 169.084C35.1312 165.15 33.4586 159.549 33.4586 152.28V147.149H46.1868V153.306C46.1868 159.121 48.5122 162.029 53.1629 162.029C55.4475 162.029 57.1609 161.345 58.3032 159.976C59.527 158.523 60.139 156.214 60.139 153.049C60.139 149.287 59.3231 145.994 57.6912 143.172C56.0594 140.265 53.0405 136.801 48.6346 132.782C43.0864 127.651 39.2108 123.033 37.0078 118.928C34.8048 114.738 33.7033 110.034 33.7033 104.818C33.7033 97.7197 35.4168 92.2465 38.8436 88.3983C42.2704 84.4645 47.2475 82.4976 53.7748 82.4976C60.2206 82.4976 65.0753 84.4645 68.3389 88.3983C71.6842 92.2465 73.3568 97.8052 73.3568 105.074V108.794H60.6285V104.176C60.6285 101.098 60.0574 98.8741 58.9151 97.5059C57.7728 96.0521 56.1002 95.3252 53.8972 95.3252C49.4097 95.3252 47.1659 98.19 47.1659 103.92C47.1659 107.169 47.9818 110.205 49.6137 113.027C51.3271 115.849 54.3868 119.27 58.7927 123.289C64.4225 128.42 68.2981 133.081 70.4195 137.271C72.5409 141.462 73.6016 146.379 73.6016 152.023C73.6016 159.378 71.8474 165.022 68.3389 168.956C64.9121 172.889 59.8942 174.856 53.2853 174.856Z" fill="#204359"/>
<path d="M0 83.7803H13.4626V173.574H0V83.7803Z" fill="#204359"/>
<path d="M162.031 265V257.67H164.321C164.821 257.67 165.261 257.737 165.641 257.87C166.028 257.997 166.331 258.21 166.551 258.51C166.771 258.81 166.881 259.213 166.881 259.72C166.881 260.207 166.771 260.613 166.551 260.94C166.331 261.26 166.028 261.5 165.641 261.66C165.261 261.813 164.821 261.89 164.321 261.89H162.951V265H162.031ZM162.951 261.15H164.181C164.755 261.15 165.195 261.033 165.501 260.8C165.808 260.56 165.961 260.2 165.961 259.72C165.961 259.24 165.808 258.903 165.501 258.71C165.195 258.517 164.755 258.42 164.181 258.42H162.951V261.15ZM166.051 265L164.131 261.65L164.861 261.16L167.091 265H166.051ZM171.852 265.13C171.366 265.13 170.926 265.017 170.532 264.79C170.139 264.563 169.826 264.24 169.592 263.82C169.366 263.393 169.252 262.883 169.252 262.29C169.252 261.843 169.319 261.447 169.452 261.1C169.586 260.747 169.766 260.447 169.992 260.2C170.226 259.947 170.489 259.757 170.782 259.63C171.076 259.497 171.376 259.43 171.682 259.43C172.149 259.43 172.542 259.533 172.862 259.74C173.182 259.947 173.426 260.243 173.592 260.63C173.766 261.01 173.852 261.46 173.852 261.98C173.852 262.08 173.849 262.173 173.842 262.26C173.836 262.347 173.826 262.427 173.812 262.5H170.152C170.172 262.887 170.259 263.223 170.412 263.51C170.572 263.79 170.782 264.01 171.042 264.17C171.302 264.323 171.606 264.4 171.952 264.4C172.219 264.4 172.459 264.363 172.672 264.29C172.892 264.21 173.106 264.103 173.312 263.97L173.632 264.58C173.399 264.733 173.136 264.863 172.842 264.97C172.549 265.077 172.219 265.13 171.852 265.13ZM170.142 261.85H173.052C173.052 261.303 172.932 260.887 172.692 260.6C172.459 260.307 172.129 260.16 171.702 260.16C171.449 260.16 171.209 260.227 170.982 260.36C170.762 260.493 170.576 260.683 170.422 260.93C170.276 261.177 170.182 261.483 170.142 261.85ZM177.754 265.13C177.454 265.13 177.184 265.07 176.944 264.95C176.704 264.83 176.514 264.657 176.374 264.43C176.241 264.197 176.174 263.917 176.174 263.59C176.174 262.997 176.437 262.543 176.964 262.23C177.497 261.91 178.344 261.687 179.504 261.56C179.504 261.327 179.471 261.107 179.404 260.9C179.344 260.687 179.234 260.517 179.074 260.39C178.914 260.257 178.684 260.19 178.384 260.19C178.071 260.19 177.774 260.253 177.494 260.38C177.221 260.5 176.974 260.63 176.754 260.77L176.404 260.14C176.571 260.033 176.764 259.927 176.984 259.82C177.204 259.707 177.444 259.613 177.704 259.54C177.964 259.467 178.241 259.43 178.534 259.43C178.974 259.43 179.331 259.523 179.604 259.71C179.884 259.897 180.087 260.157 180.214 260.49C180.347 260.817 180.414 261.207 180.414 261.66V265H179.664L179.584 264.35H179.554C179.301 264.563 179.021 264.747 178.714 264.9C178.414 265.053 178.094 265.13 177.754 265.13ZM178.014 264.39C178.274 264.39 178.521 264.33 178.754 264.21C178.994 264.09 179.244 263.913 179.504 263.68V262.17C178.897 262.237 178.414 262.333 178.054 262.46C177.694 262.58 177.437 262.73 177.284 262.91C177.131 263.083 177.054 263.29 177.054 263.53C177.054 263.843 177.147 264.067 177.334 264.2C177.521 264.327 177.747 264.39 178.014 264.39ZM185.779 265.13C185.299 265.13 184.865 265.02 184.479 264.8C184.099 264.573 183.795 264.25 183.569 263.83C183.349 263.403 183.239 262.89 183.239 262.29C183.239 261.683 183.359 261.17 183.599 260.75C183.839 260.323 184.159 259.997 184.559 259.77C184.959 259.543 185.389 259.43 185.849 259.43C186.202 259.43 186.505 259.493 186.759 259.62C187.019 259.747 187.242 259.897 187.429 260.07L186.969 260.67C186.815 260.53 186.649 260.417 186.469 260.33C186.295 260.243 186.102 260.2 185.889 260.2C185.562 260.2 185.269 260.287 185.009 260.46C184.749 260.633 184.545 260.877 184.399 261.19C184.252 261.503 184.179 261.87 184.179 262.29C184.179 262.703 184.249 263.067 184.389 263.38C184.535 263.693 184.732 263.937 184.979 264.11C185.232 264.283 185.525 264.37 185.859 264.37C186.112 264.37 186.345 264.32 186.559 264.22C186.772 264.113 186.965 263.983 187.139 263.83L187.539 264.45C187.292 264.663 187.019 264.83 186.719 264.95C186.419 265.07 186.105 265.13 185.779 265.13ZM191.8 265.13C191.42 265.13 191.116 265.057 190.89 264.91C190.663 264.757 190.5 264.543 190.4 264.27C190.306 263.997 190.26 263.68 190.26 263.32V260.31H189.45V259.62L190.31 259.57L190.41 258.04H191.17V259.57H192.65V260.31H191.17V263.35C191.17 263.677 191.23 263.933 191.35 264.12C191.476 264.3 191.696 264.39 192.01 264.39C192.11 264.39 192.216 264.377 192.33 264.35C192.443 264.317 192.543 264.28 192.63 264.24L192.81 264.93C192.656 264.983 192.493 265.03 192.32 265.07C192.146 265.11 191.973 265.13 191.8 265.13ZM198.296 266.79L201.296 257.06H201.956L198.966 266.79H198.296ZM208.348 265V257.67H209.288L211.968 262.29L212.758 263.8H212.808C212.775 263.433 212.745 263.05 212.718 262.65C212.691 262.25 212.678 261.86 212.678 261.48V257.67H213.558V265H212.608L209.938 260.37L209.148 258.87H209.108C209.128 259.237 209.151 259.613 209.178 260C209.205 260.38 209.218 260.763 209.218 261.15V265H208.348ZM219.184 265.13C218.698 265.13 218.258 265.017 217.864 264.79C217.471 264.563 217.158 264.24 216.924 263.82C216.698 263.393 216.584 262.883 216.584 262.29C216.584 261.843 216.651 261.447 216.784 261.1C216.918 260.747 217.098 260.447 217.324 260.2C217.558 259.947 217.821 259.757 218.114 259.63C218.408 259.497 218.708 259.43 219.014 259.43C219.481 259.43 219.874 259.533 220.194 259.74C220.514 259.947 220.758 260.243 220.924 260.63C221.098 261.01 221.184 261.46 221.184 261.98C221.184 262.08 221.181 262.173 221.174 262.26C221.168 262.347 221.158 262.427 221.144 262.5H217.484C217.504 262.887 217.591 263.223 217.744 263.51C217.904 263.79 218.114 264.01 218.374 264.17C218.634 264.323 218.938 264.4 219.284 264.4C219.551 264.4 219.791 264.363 220.004 264.29C220.224 264.21 220.438 264.103 220.644 263.97L220.964 264.58C220.731 264.733 220.468 264.863 220.174 264.97C219.881 265.077 219.551 265.13 219.184 265.13ZM217.474 261.85H220.384C220.384 261.303 220.264 260.887 220.024 260.6C219.791 260.307 219.461 260.16 219.034 260.16C218.781 260.16 218.541 260.227 218.314 260.36C218.094 260.493 217.908 260.683 217.754 260.93C217.608 261.177 217.514 261.483 217.474 261.85ZM223.144 265L224.934 262.17L223.284 259.57H224.274L225.004 260.76C225.084 260.913 225.167 261.067 225.254 261.22C225.347 261.367 225.441 261.517 225.534 261.67H225.584C225.657 261.517 225.734 261.367 225.814 261.22C225.901 261.067 225.984 260.913 226.064 260.76L226.734 259.57H227.684L226.034 262.26L227.824 265H226.824L226.024 263.73C225.931 263.563 225.834 263.4 225.734 263.24C225.641 263.073 225.541 262.913 225.434 262.76H225.384C225.297 262.913 225.207 263.073 225.114 263.24C225.027 263.4 224.934 263.563 224.834 263.73L224.104 265H223.144ZM231.802 265.13C231.422 265.13 231.118 265.057 230.892 264.91C230.665 264.757 230.502 264.543 230.402 264.27C230.308 263.997 230.262 263.68 230.262 263.32V260.31H229.452V259.62L230.312 259.57L230.412 258.04H231.172V259.57H232.652V260.31H231.172V263.35C231.172 263.677 231.232 263.933 231.352 264.12C231.478 264.3 231.698 264.39 232.012 264.39C232.112 264.39 232.218 264.377 232.332 264.35C232.445 264.317 232.545 264.28 232.632 264.24L232.812 264.93C232.658 264.983 232.495 265.03 232.322 265.07C232.148 265.11 231.975 265.13 231.802 265.13ZM235.9 265.13C235.72 265.13 235.563 265.067 235.43 264.94C235.303 264.807 235.24 264.64 235.24 264.44C235.24 264.227 235.303 264.057 235.43 263.93C235.563 263.803 235.72 263.74 235.9 263.74C236.08 263.74 236.233 263.803 236.36 263.93C236.493 264.057 236.56 264.227 236.56 264.44C236.56 264.64 236.493 264.807 236.36 264.94C236.233 265.067 236.08 265.13 235.9 265.13ZM239.397 267.42C239.237 267.42 239.09 267.407 238.957 267.38C238.817 267.353 238.7 267.32 238.607 267.28L238.787 266.59C238.854 266.617 238.934 266.64 239.027 266.66C239.12 266.68 239.214 266.69 239.307 266.69C239.58 266.69 239.76 266.593 239.847 266.4C239.934 266.207 239.977 265.947 239.977 265.62V259.57H240.887V265.62C240.887 265.987 240.837 266.303 240.737 266.57C240.644 266.843 240.487 267.053 240.267 267.2C240.047 267.347 239.757 267.42 239.397 267.42ZM240.427 258.45C240.247 258.45 240.1 258.397 239.987 258.29C239.874 258.177 239.817 258.027 239.817 257.84C239.817 257.66 239.874 257.517 239.987 257.41C240.1 257.303 240.247 257.25 240.427 257.25C240.6 257.25 240.744 257.303 240.857 257.41C240.977 257.517 241.037 257.66 241.037 257.84C241.037 258.027 240.977 258.177 240.857 258.29C240.744 258.397 240.6 258.45 240.427 258.45ZM245.641 265.13C245.261 265.13 244.891 265.06 244.531 264.92C244.177 264.773 243.874 264.593 243.621 264.38L244.061 263.77C244.301 263.963 244.547 264.12 244.801 264.24C245.054 264.36 245.344 264.42 245.671 264.42C246.031 264.42 246.297 264.34 246.471 264.18C246.651 264.013 246.741 263.81 246.741 263.57C246.741 263.383 246.677 263.23 246.551 263.11C246.431 262.983 246.274 262.877 246.081 262.79C245.894 262.697 245.701 262.613 245.501 262.54C245.247 262.44 244.997 262.33 244.751 262.21C244.511 262.083 244.311 261.923 244.151 261.73C243.997 261.53 243.921 261.277 243.921 260.97C243.921 260.677 243.994 260.417 244.141 260.19C244.287 259.957 244.501 259.773 244.781 259.64C245.061 259.5 245.397 259.43 245.791 259.43C246.124 259.43 246.434 259.49 246.721 259.61C247.014 259.73 247.264 259.877 247.471 260.05L247.031 260.62C246.844 260.487 246.651 260.373 246.451 260.28C246.257 260.187 246.041 260.14 245.801 260.14C245.454 260.14 245.197 260.22 245.031 260.38C244.871 260.533 244.791 260.717 244.791 260.93C244.791 261.097 244.844 261.237 244.951 261.35C245.064 261.463 245.211 261.56 245.391 261.64C245.571 261.713 245.761 261.79 245.961 261.87C246.161 261.943 246.357 262.023 246.551 262.11C246.751 262.197 246.927 262.3 247.081 262.42C247.241 262.54 247.367 262.69 247.461 262.87C247.561 263.043 247.611 263.26 247.611 263.52C247.611 263.813 247.534 264.083 247.381 264.33C247.234 264.577 247.014 264.773 246.721 264.92C246.434 265.06 246.074 265.13 245.641 265.13Z" fill="black"/>
</svg>
