<svg width="1440" height="620" viewBox="0 0 1440 620" fill="none" xmlns="http://www.w3.org/2000/svg">
<path fill-rule="evenodd" clip-rule="evenodd" d="M0 6.27685L21.6 17.6421C43.2 29.0073 87.6 51.7378 130.8 40.3726C174 29.0073 218.4 -16.4536 261.6 6.27685C306 29.0073 349.2 119.929 392.4 131.295C436.8 142.66 480 74.4683 523.2 51.7378C567.6 29.0073 610.8 51.7378 654 85.8336C698.4 119.929 741.6 165.39 786 244.947C829.2 324.504 872.4 438.156 916.8 460.887C960 483.617 1003.2 415.426 1047.6 426.791C1090.8 438.156 1134 529.078 1178.4 517.713C1221.6 506.348 1266 392.695 1309.2 301.773C1352.4 210.851 1396.8 142.66 1418.4 108.564L1440 74.4683V620H1418.4C1396.8 620 1352.4 620 1309.2 620C1266 620 1221.6 620 1178.4 620C1134 620 1090.8 620 1047.6 620C1003.2 620 960 620 916.8 620C872.4 620 829.2 620 786 620C741.6 620 698.4 620 654 620C610.8 620 567.6 620 523.2 620C480 620 436.8 620 392.4 620C349.2 620 306 620 261.6 620C218.4 620 174 620 130.8 620C87.6 620 43.2 620 21.6 620H0V6.27685Z" fill="#C1D4D9"/>
</svg>
