<svg width="617" height="21" viewBox="0 0 617 21" fill="none" xmlns="http://www.w3.org/2000/svg">
<path d="M0.595604 10.5C17.6789 -2.16667 34.7623 -2.16667 51.8456 10.5C68.9289 23.1667 86.0123 23.1667 103.096 10.5C120.179 -2.16667 137.262 -2.16667 154.346 10.5C171.429 23.1667 188.512 23.1667 205.596 10.5C222.679 -2.16667 239.762 -2.16667 256.846 10.5C273.929 23.1667 291.012 23.1667 308.096 10.5C325.179 -2.16667 342.262 -2.16667 359.346 10.5C376.429 23.1667 393.512 23.1667 410.596 10.5C427.679 -2.16667 444.762 -2.16667 461.846 10.5C478.929 23.1667 496.012 23.1667 513.096 10.5C530.179 -2.16667 547.262 -2.16667 564.346 10.5C581.429 23.1667 598.512 23.1667 615.596 10.5" stroke="#6593A6" stroke-width="2"/>
</svg>
