<svg width="2400" height="620" viewBox="0 0 2400 620" fill="none" xmlns="http://www.w3.org/2000/svg">
<path fill-rule="evenodd" clip-rule="evenodd" d="M0 0L40 82.6667C80 165.333 160 330.667 240 413.333C320 496 400 496 480 434C560 372 640 248 720 175.667C800 103.333 880 82.6667 960 144.667C1040 206.667 1120 351.333 1200 361.667C1280 372 1360 248 1440 237.667C1520 227.333 1600 330.667 1680 382.333C1760 434 1840 434 1920 434C2000 434 2080 434 2160 413.333C2240 392.667 2320 351.333 2360 330.667L2400 310V620H2360C2320 620 2240 620 2160 620C2080 620 2000 620 1920 620C1840 620 1760 620 1680 620C1600 620 1520 620 1440 620C1360 620 1280 620 1200 620C1120 620 1040 620 960 620C880 620 800 620 720 620C640 620 560 620 480 620C400 620 320 620 240 620C160 620 80 620 40 620H0V0Z" fill="url(#paint0_linear_574_299)"/>
<defs>
<linearGradient id="paint0_linear_574_299" x1="1247.5" y1="-32" x2="1247.5" y2="620" gradientUnits="userSpaceOnUse">
<stop stop-color="#C1D4D9"/>
<stop offset="0.83" stop-color="#C1D4D9"/>
<stop offset="1" stop-color="#FAFAFA"/>
</linearGradient>
</defs>
</svg>
