<svg width="64" height="64" viewBox="0 0 64 64" fill="none" xmlns="http://www.w3.org/2000/svg">
<path d="M42.6666 34.6667L34.6666 42.6667M42.6666 18.6667L18.6666 42.6667M6.66663 32C6.66663 20.0587 6.66663 14.0853 10.376 10.376C14.0853 6.66666 20.056 6.66666 32 6.66666C43.9413 6.66666 49.9146 6.66666 53.624 10.376C57.3333 14.0853 57.3333 20.056 57.3333 32C57.3333 43.9413 57.3333 49.9147 53.624 53.624C49.9146 57.3333 43.944 57.3333 32 57.3333C20.0586 57.3333 14.0853 57.3333 10.376 53.624C6.66663 49.9147 6.66663 43.944 6.66663 32Z" stroke="black" stroke-width="3" stroke-linecap="round" stroke-linejoin="round"/>
</svg>
